<svg xmlns="http://www.w3.org/2000/svg" version="1.1" xmlns:xlink="http://www.w3.org/1999/xlink" xmlns:svgjs="http://svgjs.dev/svgjs" width="2000" height="742" viewBox="0 0 2000 742"><g transform="matrix(1,0,0,1,-1.2121212121212466,-0.8257057484102006)"><svg viewBox="0 0 396 147" data-background-color="#ffffff" preserveAspectRatio="xMidYMid meet" height="742" width="2000" xmlns="http://www.w3.org/2000/svg" xmlns:xlink="http://www.w3.org/1999/xlink"><g id="tight-bounds" transform="matrix(1,0,0,1,0.2400000000000091,0.1635832143076783)"><svg viewBox="0 0 395.52 146.67283357138464" height="146.67283357138464" width="395.52"><g><svg viewBox="0 0 662.4326850373996 245.65351679999995" height="146.67283357138464" width="395.52"><g transform="matrix(1,0,0,1,264.9350850373996,57.5678470672035)"><svg viewBox="0 0 397.4975999999999 130.51782266559294" height="130.51782266559294" width="397.4975999999999"><g id="textblocktransform"><svg viewBox="0 0 397.4975999999999 130.51782266559294" height="130.51782266559294" width="397.4975999999999" id="textblock"><g><rect width="397.4975999999999" height="7.365559066686655" x="0" y="90.35196383302485" fill="#000000" opacity="1" stroke-width="0" stroke="transparent" fill-opacity="1" class="rect-r$-0" data-fill-palette-color="primary" rx="1%" id="r$-0" data-palette-color="#000000"></rect></g><g transform="matrix(1,0,0,1,0.9887999999999693,0)"><svg viewBox="0 0 395.52 81.67525812619503" height="81.67525812619503" width="395.52"><g transform="matrix(1,0,0,1,0,0)"><svg width="395.52" viewBox="4.5 -32.05 156.89 32.4" height="81.67525812619503" data-palette-color="#000000"><path d="M25.3-25L25.15-7.45 25.2 0 21.2 0 8.1-19 7.85-19 7.8-8.3 7.9 0 4.5 0 4.65-7.35 4.55-24.9 8.5-24.9 21.6-5.9 21.95-5.9 21.85-24.75 25.3-25ZM42.85-3L49.5-3.2 49.8-2.9 49.45 0 34.3 0 34.45-7.5 34.3-24.9 49.55-24.9 49.8-24.6 49.5-21.7 43.2-21.9 38-21.85 37.95-14.3 42.9-14.25 47.25-14.4 47.5-14.05 47.2-11.1 42.6-11.25 37.95-11.2 37.9-7.8 37.95-3.05 42.85-3ZM66.7-24.9L75.45 0 71.7 0 71.09-2.7 69.8-6.4 63.84-6.45 58.55-6.4 57.2-2.9 56.5 0 52.8 0 62.4-24.9 66.7-24.9ZM64.15-9.4L68.75-9.45 64.59-21.25 64.3-21.25 59.75-9.45 64.15-9.4ZM93.09-10.05Q96.14-5.4 99.84-0.9L99.84-0.9 99.79-0.4Q97.69 0.25 96.34 0.35L96.34 0.35 95.69-0.05Q91.89-5.8 89.94-9.1L89.94-9.1 85.24-9.05 85.24-7.8 85.34 0 81.64 0 81.79-7.5 81.64-24.9 90.14-24.95Q94.09-24.95 96.22-23.1 98.34-21.25 98.34-17.75L98.34-17.75Q98.34-15.2 96.97-13.2 95.59-11.2 93.09-10.05L93.09-10.05ZM85.34-21.9L85.29-12.15 89.99-12Q94.44-13.25 94.44-17.45L94.44-17.45Q94.44-19.65 93.14-20.75 91.84-21.85 89.19-21.95L89.19-21.95 85.34-21.9ZM135.19-32.05L138.34 0 134.74 0 133.99-9.75 132.29-25.7 131.94-25.7 123.04-3.7 119.74-3.7 111.29-25.7 110.89-25.7 109.19-10.05 108.34 0 104.94 0 108.29-32.05 112.84-32.05 114.49-27.15 121.44-8.9 121.74-8.9 129.04-27.45 130.69-32.05 135.19-32.05ZM154.44-3L161.09-3.2 161.39-2.9 161.04 0 145.89 0 146.04-7.5 145.89-24.9 161.14-24.9 161.39-24.6 161.09-21.7 154.79-21.9 149.59-21.85 149.54-14.3 154.49-14.25 158.84-14.4 159.09-14.05 158.79-11.1 154.19-11.25 149.54-11.2 149.49-7.8 149.54-3.05 154.44-3Z" opacity="1" transform="matrix(1,0,0,1,0,0)" fill="#000000" class="wordmark-text-0" data-fill-palette-color="primary" id="text-0"></path></svg></g></svg></g><g transform="matrix(1,0,0,1,0,106.39422860654133)"><svg viewBox="0 0 232.209792 24.123594059051598" height="24.123594059051598" width="232.209792"><g transform="matrix(1,0,0,1,0,0)"><svg width="232.209792" viewBox="1.85 -25.78 251.46 26.130000000000003" height="24.123594059051598" data-palette-color="#89939e"><path d="M13.68-25.73L13.68-25.73Q15.95-25.73 17.88-24.96 19.8-24.2 21.2-22.76 22.6-21.33 23.39-19.21 24.18-17.1 24.18-14.4L24.18-14.4Q24.18-13.35 23.95-13 23.73-12.65 23.1-12.65L23.1-12.65 6.25-12.65Q6.3-10.25 6.9-8.47 7.5-6.7 8.55-5.51 9.6-4.33 11.05-3.74 12.5-3.15 14.3-3.15L14.3-3.15Q15.98-3.15 17.19-3.54 18.4-3.93 19.28-4.38 20.15-4.83 20.74-5.21 21.33-5.6 21.75-5.6L21.75-5.6Q22.3-5.6 22.6-5.18L22.6-5.18 23.85-3.55Q23.03-2.55 21.88-1.81 20.73-1.07 19.41-0.6 18.1-0.13 16.7 0.11 15.3 0.35 13.93 0.35L13.93 0.35Q11.3 0.35 9.09-0.54 6.88-1.43 5.26-3.14 3.65-4.85 2.75-7.38 1.85-9.9 1.85-13.18L1.85-13.18Q1.85-15.83 2.66-18.13 3.48-20.43 5-22.11 6.53-23.8 8.72-24.76 10.93-25.73 13.68-25.73ZM13.78-22.45L13.78-22.45Q10.55-22.45 8.7-20.59 6.85-18.73 6.4-15.43L6.4-15.43 20.18-15.43Q20.18-16.98 19.75-18.26 19.33-19.55 18.5-20.49 17.68-21.43 16.49-21.94 15.3-22.45 13.78-22.45ZM48.3-22.43L47.12-20.83Q46.92-20.55 46.72-20.4 46.52-20.25 46.15-20.25L46.15-20.25Q45.77-20.25 45.34-20.56 44.9-20.88 44.22-21.25 43.55-21.63 42.59-21.94 41.62-22.25 40.22-22.25L40.22-22.25Q38.37-22.25 36.95-21.59 35.52-20.93 34.56-19.68 33.6-18.43 33.11-16.65 32.62-14.88 32.62-12.68L32.62-12.68Q32.62-10.38 33.15-8.59 33.67-6.8 34.62-5.59 35.57-4.38 36.94-3.74 38.3-3.1 40-3.1L40-3.1Q41.62-3.1 42.67-3.49 43.72-3.88 44.42-4.35 45.12-4.83 45.57-5.21 46.02-5.6 46.47-5.6L46.47-5.6Q47.05-5.6 47.32-5.18L47.32-5.18 48.57-3.55Q46.92-1.53 44.45-0.59 41.97 0.35 39.22 0.35L39.22 0.35Q36.85 0.35 34.81-0.53 32.77-1.4 31.27-3.06 29.77-4.73 28.91-7.15 28.05-9.58 28.05-12.68L28.05-12.68Q28.05-15.5 28.84-17.9 29.62-20.3 31.14-22.04 32.65-23.78 34.87-24.75 37.1-25.73 39.97-25.73L39.97-25.73Q42.62-25.73 44.67-24.86 46.72-24 48.3-22.43L48.3-22.43ZM63.45-25.73L63.45-25.73Q66.22-25.73 68.46-24.8 70.7-23.88 72.26-22.18 73.82-20.48 74.66-18.06 75.5-15.65 75.5-12.68L75.5-12.68Q75.5-9.68 74.66-7.28 73.82-4.88 72.26-3.18 70.7-1.48 68.46-0.56 66.22 0.35 63.45 0.35L63.45 0.35Q60.67 0.35 58.43-0.56 56.2-1.48 54.62-3.18 53.05-4.88 52.2-7.28 51.34-9.68 51.34-12.68L51.34-12.68Q51.34-15.65 52.2-18.06 53.05-20.48 54.62-22.18 56.2-23.88 58.43-24.8 60.67-25.73 63.45-25.73ZM63.45-3.13L63.45-3.13Q67.2-3.13 69.05-5.64 70.9-8.15 70.9-12.65L70.9-12.65Q70.9-17.18 69.05-19.7 67.2-22.23 63.45-22.23L63.45-22.23Q61.55-22.23 60.15-21.58 58.75-20.93 57.81-19.7 56.87-18.48 56.41-16.69 55.95-14.9 55.95-12.65L55.95-12.65Q55.95-10.4 56.41-8.63 56.87-6.85 57.81-5.64 58.75-4.42 60.15-3.78 61.55-3.13 63.45-3.13ZM85.44 0L80.99 0 80.99-25.33 83.64-25.33Q84.59-25.33 84.84-24.4L84.84-24.4 85.17-21.8Q86.57-23.53 88.31-24.63 90.04-25.73 92.34-25.73L92.34-25.73Q94.92-25.73 96.5-24.3 98.09-22.88 98.79-20.45L98.79-20.45Q99.32-21.83 100.18-22.83 101.04-23.83 102.12-24.48 103.19-25.13 104.41-25.43 105.62-25.73 106.87-25.73L106.87-25.73Q108.87-25.73 110.43-25.09 111.99-24.45 113.08-23.23 114.17-22 114.74-20.21 115.32-18.43 115.32-16.13L115.32-16.13 115.32 0 110.87 0 110.87-16.13Q110.87-19.1 109.57-20.64 108.27-22.18 105.79-22.18L105.79-22.18Q104.69-22.18 103.7-21.79 102.72-21.4 101.97-20.65 101.22-19.9 100.78-18.76 100.34-17.63 100.34-16.13L100.34-16.13 100.34 0 95.89 0 95.89-16.13Q95.89-19.18 94.67-20.68 93.44-22.18 91.09-22.18L91.09-22.18Q89.44-22.18 88.03-21.29 86.62-20.4 85.44-18.88L85.44-18.88 85.44 0ZM126.49 0L122.04 0 122.04-25.33 124.69-25.33Q125.64-25.33 125.89-24.4L125.89-24.4 126.22-21.8Q127.62-23.53 129.35-24.63 131.09-25.73 133.39-25.73L133.39-25.73Q135.97-25.73 137.55-24.3 139.14-22.88 139.84-20.45L139.84-20.45Q140.37-21.83 141.23-22.83 142.09-23.83 143.17-24.48 144.24-25.13 145.45-25.43 146.67-25.73 147.92-25.73L147.92-25.73Q149.92-25.73 151.48-25.09 153.04-24.45 154.13-23.23 155.22-22 155.79-20.21 156.37-18.43 156.37-16.13L156.37-16.13 156.37 0 151.92 0 151.92-16.13Q151.92-19.1 150.62-20.64 149.32-22.18 146.84-22.18L146.84-22.18Q145.74-22.18 144.75-21.79 143.77-21.4 143.02-20.65 142.27-19.9 141.83-18.76 141.39-17.63 141.39-16.13L141.39-16.13 141.39 0 136.94 0 136.94-16.13Q136.94-19.18 135.72-20.68 134.49-22.18 132.14-22.18L132.14-22.18Q130.49-22.18 129.08-21.29 127.67-20.4 126.49-18.88L126.49-18.88 126.49 0ZM173.11-25.73L173.11-25.73Q175.39-25.73 177.31-24.96 179.24-24.2 180.64-22.76 182.04-21.33 182.83-19.21 183.61-17.1 183.61-14.4L183.61-14.4Q183.61-13.35 183.39-13 183.16-12.65 182.54-12.65L182.54-12.65 165.69-12.65Q165.74-10.25 166.34-8.47 166.94-6.7 167.99-5.51 169.04-4.33 170.49-3.74 171.94-3.15 173.74-3.15L173.74-3.15Q175.41-3.15 176.63-3.54 177.84-3.93 178.71-4.38 179.59-4.83 180.18-5.21 180.76-5.6 181.19-5.6L181.19-5.6Q181.74-5.6 182.04-5.18L182.04-5.18 183.29-3.55Q182.46-2.55 181.31-1.81 180.16-1.07 178.85-0.6 177.54-0.13 176.14 0.11 174.74 0.35 173.36 0.35L173.36 0.35Q170.74 0.35 168.53-0.54 166.31-1.43 164.7-3.14 163.09-4.85 162.19-7.38 161.29-9.9 161.29-13.18L161.29-13.18Q161.29-15.83 162.1-18.13 162.91-20.43 164.44-22.11 165.96-23.8 168.16-24.76 170.36-25.73 173.11-25.73ZM173.21-22.45L173.21-22.45Q169.99-22.45 168.14-20.59 166.29-18.73 165.84-15.43L165.84-15.43 179.61-15.43Q179.61-16.98 179.19-18.26 178.76-19.55 177.94-20.49 177.11-21.43 175.93-21.94 174.74-22.45 173.21-22.45ZM193.74 0L189.29 0 189.29-25.33 191.84-25.33Q192.56-25.33 192.84-25.05 193.11-24.78 193.21-24.1L193.21-24.1 193.51-20.15Q194.81-22.8 196.72-24.29 198.64-25.78 201.21-25.78L201.21-25.78Q202.26-25.78 203.11-25.54 203.96-25.3 204.69-24.88L204.69-24.88 204.11-21.55Q203.94-20.93 203.34-20.93L203.34-20.93Q202.99-20.93 202.26-21.16 201.54-21.4 200.24-21.4L200.24-21.4Q197.91-21.4 196.35-20.05 194.79-18.7 193.74-16.13L193.74-16.13 193.74 0ZM227.88-22.43L226.71-20.83Q226.51-20.55 226.31-20.4 226.11-20.25 225.73-20.25L225.73-20.25Q225.36-20.25 224.92-20.56 224.48-20.88 223.81-21.25 223.13-21.63 222.17-21.94 221.21-22.25 219.81-22.25L219.81-22.25Q217.96-22.25 216.53-21.59 215.11-20.93 214.15-19.68 213.18-18.43 212.7-16.65 212.21-14.88 212.21-12.68L212.21-12.68Q212.21-10.38 212.73-8.59 213.26-6.8 214.21-5.59 215.16-4.38 216.52-3.74 217.88-3.1 219.58-3.1L219.58-3.1Q221.21-3.1 222.26-3.49 223.31-3.88 224.01-4.35 224.71-4.83 225.16-5.21 225.61-5.6 226.06-5.6L226.06-5.6Q226.63-5.6 226.91-5.18L226.91-5.18 228.16-3.55Q226.51-1.53 224.03-0.59 221.56 0.35 218.81 0.35L218.81 0.35Q216.43 0.35 214.4-0.53 212.36-1.4 210.86-3.06 209.36-4.73 208.5-7.15 207.63-9.58 207.63-12.68L207.63-12.68Q207.63-15.5 208.42-17.9 209.21-20.3 210.72-22.04 212.23-23.78 214.46-24.75 216.68-25.73 219.56-25.73L219.56-25.73Q222.21-25.73 224.26-24.86 226.31-24 227.88-22.43L227.88-22.43ZM242.81-25.73L242.81-25.73Q245.08-25.73 247.01-24.96 248.93-24.2 250.33-22.76 251.73-21.33 252.52-19.21 253.31-17.1 253.31-14.4L253.31-14.4Q253.31-13.35 253.08-13 252.86-12.65 252.23-12.65L252.23-12.65 235.38-12.65Q235.43-10.25 236.03-8.47 236.63-6.7 237.68-5.51 238.73-4.33 240.18-3.74 241.63-3.15 243.43-3.15L243.43-3.15Q245.11-3.15 246.32-3.54 247.53-3.93 248.41-4.38 249.28-4.83 249.87-5.21 250.46-5.6 250.88-5.6L250.88-5.6Q251.43-5.6 251.73-5.18L251.73-5.18 252.98-3.55Q252.16-2.55 251.01-1.81 249.86-1.07 248.54-0.6 247.23-0.13 245.83 0.11 244.43 0.35 243.06 0.35L243.06 0.35Q240.43 0.35 238.22-0.54 236.01-1.43 234.39-3.14 232.78-4.85 231.88-7.38 230.98-9.9 230.98-13.18L230.98-13.18Q230.98-15.83 231.79-18.13 232.61-20.43 234.13-22.11 235.66-23.8 237.86-24.76 240.06-25.73 242.81-25.73ZM242.91-22.45L242.91-22.45Q239.68-22.45 237.83-20.59 235.98-18.73 235.53-15.43L235.53-15.43 249.31-15.43Q249.31-16.98 248.88-18.26 248.46-19.55 247.63-20.49 246.81-21.43 245.62-21.94 244.43-22.45 242.91-22.45Z" opacity="1" transform="matrix(1,0,0,1,0,0)" fill="#89939e" class="slogan-text-1" data-fill-palette-color="secondary" id="text-1"></path></svg></g></svg></g></svg></g></svg></g><g><svg viewBox="0 0 245.65351679999995 245.65351679999995" height="245.65351679999995" width="245.65351679999995"><g><svg xmlns="http://www.w3.org/2000/svg" xmlns:xlink="http://www.w3.org/1999/xlink" version="1.1" x="0" y="0" viewBox="10 10 80 80" enable-background="new 0 0 100 100" xml:space="preserve" height="245.65351679999995" width="245.65351679999995" class="icon-icon-0" data-fill-palette-color="accent" id="icon-0"><path d="M50 10c-22.092 0-40 17.908-40 40s17.908 40 40 40 40-17.908 40-40S72.092 10 50 10zM67.716 69.8h-2.199V51.1H36.495l5.097 5.096-1.554 1.557L32.284 50l7.754-7.753 1.554 1.557L36.495 48.9h29.022V30.2h2.199C67.716 30.2 67.716 69.8 67.716 69.8z" fill="#000000" data-fill-palette-color="accent"></path></svg></g></svg></g></svg></g><defs></defs></svg><rect width="395.52" height="146.67283357138464" fill="none" stroke="none" visibility="hidden"></rect></g></svg></g></svg>